# AST/ASF file generated using VICON BodyLanguage
# -----------------------------------------------
:version 1.10
:name VICON
:units
  mass 1.0
  length 0.45
  angle deg
:documentation
   .ast/.asf automatically generated from VICON data using
   VICON BodyBuilder and BodyLanguage model FoxedUp or BRILLIANT.MOD
:root
   order TX TY TZ RX RY RZ
   axis XYZ
   position 0 0 0  
   orientation 0 0 0 
:bonedata
  begin
     id 1 
     name lhipjoint
     direction 0.662698 -0.695252 0.27831 
     length 2.53073 
     axis 0 0 0  XYZ
  end
  begin
     id 2 
     name lfemur
     direction 0.34202 -0.939693 0  
     length 7.16147  
     axis 0 0 20  XYZ
    dof rx ry rz
    limits (-160.0 20.0)
           (-70.0 70.0)
           (-60.0 70.0)
  end
  begin
     id 3 
     name ltibia
     direction 0.34202 -0.939693 0   
     length 7.63967   
     axis 0 0 20   XYZ
    dof rx
    limits (-10.0 170.0)
  end
  begin
     id 4 
     name lfoot
     direction 0.0938457 -0.257721 0.961651   
     length 1.89793   
     axis -90 7.62852e-016 20   XYZ
    dof rx rz
    limits (-45.0 90.0)
           (-70.0 20.0)
  end
  begin
     id 5 
     name ltoes
     direction -0.00116841 -0.0030592 0.999995   
     length 0.955649   
     axis -90 7.62852e-016 20   XYZ
    dof rx
    limits (-90.0 20.0)
  end
  begin
     id 6 
     name rhipjoint
     direction -0.649445 -0.705948 0.282592   
     length 2.49238  
     axis 0 0 0  XYZ 
  end
  begin
     id 7 
     name rfemur
     direction -0.34202 -0.939693 0   
     length 6.90728   
     axis 0 0 -20   XYZ
    dof rx ry rz
    limits (-160.0 20.0)
           (-70.0 70.0)
           (-70.0 60.0)
  end
  begin
     id 8 
     name rtibia
     direction -0.34202 -0.939693 0   
     length 7.72868   
     axis 0 0 -20   XYZ
    dof rx
    limits (-10.0 170.0)
 end
 begin
     id 9 
     name rfoot
     direction -0.0920068 -0.252865 0.963117   
     length 1.97476  
     axis -90 -7.62852e-016 -20   XYZ
    dof rx rz
    limits (-45.0 90.0)
           (-20.0 70.0)
  end
  begin
     id 10 
     name rtoes
     direction 0.000391322 0.00230649 0.999997   
     length 0.992641   
     axis -90 -7.62852e-016 -20   XYZ
    dof rx
    limits (-90.0 20.0)
  end
  begin
     id 11 
     name lowerback
     direction -0.00875327 0.998321 -0.0572635   
     length 2.20024   
     axis 0 0 0   XYZ
    dof rx ry rz
    limits (-20.0 45.0)
           (-30.0 30.0)
           (-30.0 30.0)
  end
  begin
     id 12 
     name upperback
     direction 0.00753931 0.999972 -0.000360425   
     length 2.20538   
     axis 0 0 0   XYZ
    dof rx ry rz
    limits (-20.0 45.0)
           (-30.0 30.0)
           (-30.0 30.0)
  end
  begin
     id 13 
     name thorax
     direction 0.0117767 0.999601 0.0256663   
     length 2.21508   
     axis 0 0 0   XYZ
    dof rx ry rz
    limits (-20.0 45.0)
           (-30.0 30.0)
           (-30.0 30.0)
  end
  begin
     id 14 
     name lowerneck
     direction 0.060228 0.994909 0.0807986   
     length 1.7607   
     axis 0 0 0   XYZ
    dof rx ry rz
    limits (-20.0 45.0)
           (-30.0 30.0)
           (-30.0 30.0)
  end
  begin
     id 15 
     name upperneck
     direction -0.0563647 0.959594 -0.275685   
     length 1.75612   
     axis 0 0 0   XYZ
    dof rx ry rz
    limits (-20.0 45.0)
           (-30.0 30.0)
           (-30.0 30.0)
  end
  begin
     id 16
     name head
     direction -0.0161544 0.99458 -0.102714  
     length 1.79288  
     axis 0 0 0   XYZ
    dof rx ry rz
    limits (-20.0 45.0)
           (-30.0 30.0)
           (-30.0 30.0)
  end
  begin
     id 17 
     name lclavicle
     direction 0.93913 0.332189 -0.087669  
     length 3.52087  
     axis 0 0 0   XYZ
    dof ry rz
    limits (-20.0 10.0)
           (0.0 20.0)
  end
  begin
     id 18 
     name lhumerus
     direction 1 -4.48974e-011 -2.70836e-027   
     length 5.35289   
     axis -180 -30 -90   XYZ
    dof rx ry rz
    limits (-60.0 90.0)
           (-90.0 90.0)
           (-90.0 90.0)
  end
  begin
     id 19
     name lradius
     direction 1 -4.48961e-011 -9.76021e-027   
     length 3.27727   
     axis -180 -30 -90   XYZ
    dof rx
    limits (-10.0 170.0)
  end
  begin
     id 20
     name lwrist
     direction 1 -4.49103e-011 -2.23668e-026   
     length 1.63864   
     axis 1.44924e-014 90 90   XYZ
    dof ry
    limits (-180.0 0.0)
 end
  begin
     id 21 
     name lhand
     direction 1 3.0697e-005 0.000161777   
     length 0.54443   
     axis 2.85318e-014 90 90   XYZ
    dof rx rz
    limits (-90.0 90.0)
           (-45.0 45.0)
  end
  begin
     id 22 
     name lfingers
     direction 1 -4.49027e-011 -8.9447e-026   
     length 0.438912   
     axis 5.70628e-014 90 90   XYZ
    dof rx
    limits (0.0 90.0)
  end
  begin
     id 23
     name lthumb
     direction 0.707058 2.6516e-005 0.707156   
     length 0.630274   
     axis -90 45 -3.53137e-014   XYZ
    dof rx rz
    limits (-45.0 45.0)
           (-45.0 45.0)
  end
  begin
     id 24 
     name rclavicle
     direction -0.95274 0.284984 -0.105215   
     length 3.43401  
     axis 0 0 0   XYZ 
    dof ry rz
    limits (-10.0 20.0)
           (-20.0 0.0)
  end
  begin
     id 25 
     name rhumerus
     direction -0.999999 -0.000575019 -0.00106829  
     length 5.52077   
     axis -180 30 90   XYZ
    dof rx ry rz
    limits (-90.0 60.0)
           (-90.0 90.0)
           (-90.0 90.0)
  end
  begin
     id 26 
     name rradius
     direction -1 -4.4879e-011 -6.35415e-027   
     length 3.32364   
     axis -180 30 90   XYZ
    dof rx
    limits (-10.0 170.0)
  end
  begin
     id 27 
     name rwrist
     direction -1 -4.49048e-011 -9.98542e-027   
     length 1.66182   
     axis 6.32482e-015 -90 -90   XYZ
    dof ry
    limits (-180.0 0.0)
  end
  begin
     id 28
     name rhand
     direction -1 -4.48978e-011 -1.99771e-026   
     length 0.732235   
     axis 1.27479e-014 -90 -90   XYZ
    dof rx rz
    limits (-90.0 90.0)
           (-45.0 45.0)
  end
  begin
     id 29
     name rfingers
     direction -1 -4.49144e-011 -3.99245e-026   
     length 0.590347   
     axis 2.5496e-014 -90 -90   XYZ
    dof rx
    limits (0.0 90.0)
  end
  begin
     id 30
     name rthumb
     direction -0.707107 -6.35121e-011 0.707107   
     length 0.847624   
     axis -90 -45 -2.82974e-014   XYZ
    dof rx rz
    limits (-45.0 45.0)
           (-45.0 45.0)
  end
:hierarchy
  begin
    root lhipjoint rhipjoint lowerback
    lhipjoint lfemur
    lfemur ltibia
    ltibia lfoot
    lfoot ltoes
    rhipjoint rfemur
    rfemur rtibia
    rtibia rfoot
    rfoot rtoes
    lowerback upperback
    upperback thorax
    thorax lowerneck lclavicle rclavicle
    lowerneck upperneck
    upperneck head
    lclavicle lhumerus
    lhumerus lradius
    lradius lwrist
    lwrist lhand lthumb
    lhand lfingers
    rclavicle rhumerus
    rhumerus rradius
    rradius rwrist
    rwrist rhand rthumb
    rhand rfingers
  end

#!OML:ASF G:\Work\Work\Patient Classification 1\Elijah\terrain1\Elijah.ASF
:FULLY-SPECIFIED
:DEGREES
428
root 21.0826 17.4523 31.9333 187.289 34.811 184.307
lowerback 0.288096 -4.26198 26.2392
upperback 6.32518 -5.91689 -10.0637
thorax 2.93217 -1.64689 -27.0437
lowerneck -5.98563 22.443 19.6218
upperneck 5.01201 31.6641 -21.9842
head 9.19165 14.8387 -5.2384
rclavicle 0 2.70347e-014
rhumerus -27.7556 4.25226 -101.874
rradius 34.5843
rwrist -2.42152
rhand -14.9341 21.7309
rfingers 7.12502
rthumb 11.2283 -7.94865
lclavicle 0 2.70347e-014
lhumerus -42.6827 12.809 57.3911
lradius 34.3455
lwrist 6.2606
lhand -15.0542 26.2847
lfingers 7.12502
lthumb 11.1125 55.9705
rfemur -10.0501 -1.24209 23.7054
rtibia 23.4217
rfoot -17.8236 -15.6623
rtoes -14.4969
lfemur -52.2901 14.3275 -24.1738
ltibia 101.855
lfoot -4.16014 -18.1037
ltoes -8.84702
429
root 21.1446 17.4537 31.8908 187.078 34.2821 184.138
lowerback 0.185659 -4.32958 26.3432
upperback 6.52132 -6.02829 -10.2671
thorax 3.10095 -1.63004 -27.4333
lowerneck -6.11015 22.4934 19.3649
upperneck 4.70512 31.6101 -21.8256
head 9.0241 14.8203 -5.18159
rclavicle 6.99722e-014 -1.90833e-014
rhumerus -27.2886 4.61151 -102.198
rradius 34.7364
rwrist -2.35731
rhand -14.498 21.8857
rfingers 7.12502
rthumb 11.6489 -7.7705
lclavicle 6.99722e-014 -1.90833e-014
lhumerus -42.3747 13.3885 56.9493
lradius 34.6214
lwrist 7.37337
lhand -14.1724 28.66
lfingers 7.12502
lthumb 11.9628 58.2981
rfemur -9.44489 -1.3815 23.707
rtibia 23.0683
rfoot -17.9207 -16.0446
rtoes -14.6213
lfemur -53.4207 14.2887 -24.509
ltibia 102.131
lfoot -5.54775 -18.7302
ltoes -11.5743
430
root 21.2058 17.4561 31.8568 187.057 34.3773 184.333
lowerback 0.532706 -4.28844 26.5251
upperback 6.59014 -5.87141 -10.3757
thorax 3.04972 -1.52886 -27.7009
lowerneck -6.20556 22.4743 19.2239
upperneck 4.61606 31.5443 -21.7732
head 8.96423 14.7865 -5.16549
rclavicle 6.44062e-014 4.13472e-014
rhumerus -26.8396 4.97882 -102.451
rradius 34.8185
rwrist -2.2385
rhand -13.906 21.9776
rfingers 7.12502
rthumb 12.2198 -7.64542
lclavicle 6.44062e-014 4.13472e-014
lhumerus -42.2804 13.7905 56.7332
lradius 34.176
lwrist 6.71489
lhand -14.9922 26.8418
lfingers 7.12502
lthumb 11.1723 56.5244
rfemur -8.84533 -1.08027 23.9419
rtibia 22.6216
rfoot -18.0118 -16.0248
rtoes -13.8272
lfemur -54.4047 15.0835 -24.4999
ltibia 102.314
lfoot -5.77434 -18.7378
ltoes -9.09785
431
root 21.255 17.4557 31.808 187.095 33.2327 184.294
lowerback 0.0277441 -4.44299 26.893
upperback 6.80307 -6.24005 -10.5065
thorax 3.29325 -1.6273 -28.1709
lowerneck -6.4447 22.4663 19.2885
upperneck 4.79397 31.5425 -21.8125
head 9.0808 14.7548 -5.15214
rclavicle -5.00937e-014 -2.54444e-014
rhumerus -26.3406 5.21558 -102.707
rradius 34.8876
rwrist -2.24075
rhand -13.7822 21.9122
rfingers 7.12502
rthumb 12.3391 -7.70372
lclavicle -5.00937e-014 -2.54444e-014
lhumerus -42.1864 14.0528 56.5888
lradius 34.4588
lwrist 7.2063
lhand -15.2216 27.7527
lfingers 7.12502
lthumb 10.951 57.4471
rfemur -8.40191 -1.53474 24.0954
rtibia 22.2297
rfoot -18.4075 -16.5382
rtoes -13.1947
lfemur -55.8067 14.4199 -24.7516
ltibia 102.404
lfoot -6.3405 -18.3503
ltoes -9.51715
432
root 21.3253 17.4657 31.7797 187.068 33.754 184.636
lowerback 0.64285 -4.31897 26.9755
upperback 6.8632 -5.88039 -10.6192
thorax 3.21855 -1.42324 -28.3805
lowerneck -6.60959 22.5243 19.2536
upperneck 4.88271 31.5997 -21.7134
head 9.12153 14.7642 -5.08652
rclavicle -1.11319e-014 7.31528e-014
rhumerus -25.9758 5.47966 -102.965
rradius 35.0602
rwrist -2.33306
rhand -13.6944 21.9008
rfingers 7.12502
rthumb 12.4237 -7.71001
lclavicle -1.11319e-014 7.31528e-014
lhumerus -42.0313 14.1721 56.4365
lradius 34.5471
lwrist 7.80304
lhand -15.5745 28.0772
lfingers 7.12502
lthumb 10.6106 57.7893
rfemur -7.72545 -0.787801 24.4927
rtibia 21.826
rfoot -18.3156 -16.7823
rtoes -13.0872
lfemur -56.7423 15.7581 -24.4929
ltibia 102.384
lfoot -6.85219 -18.4915
ltoes -9.21177
433
root 21.3779 17.4657 31.7291 187.047 33.1252 184.339
lowerback 0.351981 -4.33228 26.9897
upperback 6.84291 -5.96793 -10.7779
thorax 3.28483 -1.45142 -28.6662
lowerneck -6.49207 22.514 19.1472
upperneck 4.9238 31.5959 -21.5475
head 9.06395 14.7735 -5.04579
rclavicle 1.98785e-014 7.31528e-014
rhumerus -25.8759 5.79067 -103.143
rradius 35.3232
rwrist -2.31516
rhand -13.0251 22.3127
rfingers 7.12502
rthumb 13.069 -7.25783
lclavicle 1.98785e-014 7.31528e-014
lhumerus -42.0563 14.2492 56.2723
lradius 34.5368
lwrist 8.03652
lhand -15.631 28.4312
lfingers 7.12502
lthumb 10.5561 58.1461
rfemur -7.40536 -1.11762 24.361
rtibia 21.4265
rfoot -18.182 -17.0004
rtoes -12.4971
lfemur -58.0179 15.387 -24.9333
ltibia 102.29
lfoot -7.54538 -18.0347
ltoes -9.97982
